M48
INCH,TZ
T1C0.025
T2C0.040
T3C0.050
%
T1
X18200Y-47050
X18200Y-47550
X18700Y-47050
X18700Y-47550
X19200Y-47050
X19200Y-47550
X19700Y-47050
X19700Y-47550
X20200Y-47050
X20200Y-47550
X20700Y-47050
X20700Y-47550
X21200Y-47050
X21200Y-47550
X21700Y-47050
X21700Y-47550
X22200Y-47050
X22200Y-47550
X22700Y-47050
X22700Y-47550
X23200Y-47050
X23200Y-47550
X23700Y-47050
X23700Y-47550
X24200Y-47050
X24200Y-47550
X24700Y-47050
X24700Y-47550
X25200Y-47050
X25200Y-47550
X25700Y-47050
X25700Y-47550
X26200Y-47050
X26200Y-47550
X26700Y-47050
X26700Y-47550
X27200Y-47050
X27200Y-47550
X27700Y-47050
X27700Y-47550
T2
X31400Y-47050
T3
X17575Y-47300
X28325Y-47300
M30
