G04 (created by PCBNEW (2013-07-07 BZR 4022)-stable) date 04/02/2014 9:51:19 AM*
%MOIN*%
G04 Gerber Fmt 3.4, Leading zero omitted, Abs format*
%FSLAX34Y34*%
G01*
G70*
G90*
G04 APERTURE LIST*
%ADD10C,0.00590551*%
%ADD11C,0.07*%
%ADD12C,0.0594*%
%ADD13R,0.2129X0.2129*%
%ADD14R,0.1X0.08*%
G04 APERTURE END LIST*
G54D10*
G54D11*
X17575Y-47300D03*
X28325Y-47300D03*
G54D12*
X18700Y-47550D03*
X18200Y-47550D03*
X18200Y-47050D03*
X18700Y-47050D03*
X20200Y-47050D03*
X20700Y-47050D03*
X19700Y-47050D03*
X19200Y-47050D03*
X19200Y-47550D03*
X19700Y-47550D03*
X20700Y-47550D03*
X20200Y-47550D03*
X25700Y-47050D03*
X26200Y-47050D03*
X27200Y-47050D03*
X26700Y-47050D03*
X26700Y-47550D03*
X27200Y-47550D03*
X26200Y-47550D03*
X25700Y-47550D03*
X27700Y-47550D03*
X27700Y-47050D03*
X25200Y-47050D03*
X25200Y-47550D03*
X22200Y-47550D03*
X22700Y-47550D03*
X21700Y-47550D03*
X21200Y-47550D03*
X23200Y-47550D03*
X23700Y-47550D03*
X24700Y-47550D03*
X24200Y-47550D03*
X24200Y-47050D03*
X24700Y-47050D03*
X23700Y-47050D03*
X23200Y-47050D03*
X21200Y-47050D03*
X21700Y-47050D03*
X22700Y-47050D03*
X22200Y-47050D03*
G54D13*
X31400Y-47050D03*
G54D14*
X20600Y-44150D03*
X20600Y-42850D03*
X27250Y-44150D03*
X27250Y-42850D03*
X27200Y-49700D03*
X27200Y-51000D03*
X26300Y-44150D03*
X26300Y-42850D03*
X26250Y-49700D03*
X26250Y-51000D03*
X25350Y-44150D03*
X25350Y-42850D03*
X25300Y-49700D03*
X25300Y-51000D03*
X24400Y-44150D03*
X24400Y-42850D03*
X24350Y-49700D03*
X24350Y-51000D03*
X23450Y-44150D03*
X23450Y-42850D03*
X23400Y-49700D03*
X23400Y-51000D03*
X22500Y-44150D03*
X22500Y-42850D03*
X22450Y-49700D03*
X22450Y-51000D03*
X21550Y-44150D03*
X21550Y-42850D03*
X21500Y-49700D03*
X21500Y-51000D03*
X28150Y-49700D03*
X28150Y-51000D03*
X20550Y-49700D03*
X20550Y-51000D03*
X19650Y-44150D03*
X19650Y-42850D03*
X19600Y-49700D03*
X19600Y-51000D03*
X18700Y-44150D03*
X18700Y-42850D03*
X18650Y-49700D03*
X18650Y-51000D03*
X17750Y-44150D03*
X17750Y-42850D03*
X17700Y-49700D03*
X17700Y-51000D03*
X16800Y-44150D03*
X16800Y-42850D03*
X16750Y-49700D03*
X16750Y-51000D03*
X15850Y-44150D03*
X15850Y-42850D03*
X15800Y-49700D03*
X15800Y-51000D03*
X14900Y-44150D03*
X14900Y-42850D03*
X14850Y-49700D03*
X14850Y-51000D03*
X13950Y-44150D03*
X13950Y-42850D03*
X13900Y-49700D03*
X13900Y-51000D03*
X32000Y-44150D03*
X32000Y-42850D03*
X31950Y-49700D03*
X31950Y-51000D03*
X31050Y-44150D03*
X31050Y-42850D03*
X31000Y-49700D03*
X31000Y-51000D03*
X30100Y-44150D03*
X30100Y-42850D03*
X30050Y-49700D03*
X30050Y-51000D03*
X29150Y-44150D03*
X29150Y-42850D03*
X29100Y-49700D03*
X29100Y-51000D03*
X28200Y-44150D03*
X28200Y-42850D03*
M02*
